HIERARCHY
ROOT hip
{
	OFFSET 0.000000 0.000000 0.000000
	CHANNELS 6  Xposition Yposition Zposition Xrotation Zrotation Yrotation
	JOINT abdomen
	{
		OFFSET 0.000000 3.402643 0.000000
			CHANNELS 3 Xrotation Zrotation Yrotation
		JOINT chest
		{
			OFFSET 0.000000 8.438565 -0.680529
				CHANNELS 3 Xrotation Zrotation Yrotation
			JOINT neck
			{
				OFFSET 0.000000 10.207942 -0.272212
					CHANNELS 3 Xrotation Zrotation Yrotation
				JOINT head
				{
					OFFSET 0.000000 3.130431 0.000000
						CHANNELS 3 Xrotation Zrotation Yrotation
					End Site
					{
						OFFSET 0.000000 3.130435 0.000000
					}
				}
			}
			JOINT lCollar
			{
				OFFSET 3.470700 6.669187 -0.816635
					CHANNELS 3 Yrotation Zrotation Xrotation
				JOINT lShldr
				{
					OFFSET 3.198488 0.000000 0.000000
						CHANNELS 3 Zrotation Yrotation Xrotation
					JOINT lForeArm
					{
						OFFSET 10.139888 0.000000 0.000000
							CHANNELS 3 Yrotation Zrotation Xrotation
						JOINT lHand
						{
							OFFSET 8.370511 0.000000 0.000000
								CHANNELS 3 Zrotation Yrotation Xrotation
							End Site
							{
								OFFSET 4.083176 0.000000 0.000000
							}
						}
					}
				}
			}
			JOINT rCollar
			{
				OFFSET -3.470700 6.669187 -0.816635
					CHANNELS 3 Yrotation Zrotation Xrotation
				JOINT rShldr
				{
					OFFSET -3.198488 0.000000 0.000000
						CHANNELS 3 Zrotation Yrotation Xrotation
					JOINT rForeArm
					{
						OFFSET -10.139888 0.000000 0.000000
							CHANNELS 3 Yrotation Zrotation Xrotation
						JOINT rHand
						{
							OFFSET -8.370511 0.000000 0.000000
								CHANNELS 3 Zrotation Yrotation Xrotation
							End Site
							{
								OFFSET -4.083176 0.000000 0.000000
							}
						}
					}
				}
			}
		}
	}
	JOINT lThigh 
	{
		OFFSET 5.308129 -1.633274 1.361059
			CHANNELS 3 Xrotation Zrotation Yrotation
		JOINT lShin
		{
			OFFSET -2.041588 -20.007561 0.000000
				CHANNELS 3 Xrotation Zrotation Yrotation
			JOINT lFoot
			{
				OFFSET 0.000000 -19.190928 -1.224953
					CHANNELS 3 Xrotation Yrotation Zrotation
				End Site
				{
					OFFSET 0.000000 -2.449906 4.627600
				}
			}
		}
	}
	JOINT rThigh
	{
		OFFSET -5.308129 -1.633274 1.361059
			CHANNELS 3 Xrotation Zrotation Yrotation
		JOINT rShin
		{
			OFFSET 2.041588 -20.007561 0.000000
				CHANNELS 3 Xrotation Zrotation Yrotation
			JOINT rFoot
			{
				OFFSET 0.000000 -19.190928 -1.224953
					CHANNELS 3 Xrotation Yrotation Zrotation
				End Site
				{
					OFFSET 0.000000 -2.449906 4.627600
				}
			}
		}
	}
}
MOTION
Frames: 13
Frame Time: 0.032000
-216.270523 48.021957 3737.935303 21.86 -2.75 1.86 1.47 -0.58 11.35 0.63 -0.24 4.87 -3.13 -1.84 -3.91 8.28 -0.59 -3.91 -0.15 -0.86 -0.04 -66.09 40.63 15.81 -111.75 2.31 27.65 13.10 15.62 3.58 4.62 -6.35 -0.01 77.91 1.22 24.07 104.34 -2.69 30.91 -36.22 5.05 -3.64 -53.79 2.92 1.15 29.43 -1.06 -2.59 21.02 -2.83 -11.46 -13.89 -3.98 -8.18 94.30 -3.13 3.37 -0.00 -0.00 0.00 
-216.033676 46.256664 3745.191650 21.98 -0.86 1.83 1.60 -2.55 5.93 0.69 -1.08 2.54 -3.74 -0.91 -1.62 6.44 0.97 -1.57 1.76 -4.45 -0.11 -70.34 25.74 13.57 -110.08 2.51 30.17 13.67 15.51 3.65 4.98 -5.46 -0.05 79.18 -7.14 22.37 94.16 -2.70 30.81 -42.23 4.09 -3.55 -50.68 2.48 5.65 40.78 -0.81 -2.85 6.11 -5.92 -11.46 -24.91 -8.93 -7.94 112.01 -4.36 3.07 -0.00 -0.00 0.00 
-215.802734 45.311470 3752.285400 21.85 2.80 1.80 4.10 -4.94 -1.19 1.76 -2.10 -0.50 -6.44 0.32 0.28 4.99 3.41 0.29 0.59 -5.50 -0.14 -74.93 4.31 11.34 -108.28 2.75 33.55 13.24 14.52 3.26 5.37 -5.13 -0.05 80.62 -16.64 11.59 85.65 -2.98 35.08 -34.96 10.67 -7.56 -44.32 -2.09 5.63 48.55 -0.82 -3.17 -5.85 -2.43 -12.42 -42.97 -13.79 -4.29 123.99 -4.89 2.29 -0.00 -0.00 0.00 
-215.305359 46.221134 3767.207031 23.25 1.14 1.76 3.84 -1.36 -7.59 1.63 -0.58 -3.25 -5.60 -0.27 2.98 5.38 3.39 2.87 0.44 -3.84 -0.15 -81.65 -9.71 8.63 -109.34 3.38 42.85 14.21 13.07 3.19 4.87 -5.54 -0.06 73.22 -28.00 13.26 85.71 -2.97 34.14 -34.12 9.51 -6.66 -35.23 -1.16 2.20 46.80 -0.37 -3.15 -4.53 -3.48 -12.42 -61.19 -11.89 -4.49 121.00 -4.68 2.62 -0.00 -0.00 0.00 
-215.311279 48.021217 3767.319580 23.94 -0.89 1.73 3.51 2.23 -12.11 1.50 0.95 -5.19 -5.40 0.61 6.45 6.50 -0.18 6.57 2.27 -2.29 -0.09 -85.49 -15.74 7.32 -113.58 3.21 40.11 13.17 13.87 3.18 4.34 -7.06 -0.07 63.50 -36.21 21.04 87.75 -2.79 32.56 -33.92 10.16 -6.91 -24.30 2.34 0.79 40.59 -0.52 -2.82 6.46 -7.09 -11.32 -69.84 -8.62 -4.70 107.30 -4.05 3.42 -0.00 -0.00 0.00 
-215.038895 48.291378 3775.781250 25.97 -1.81 1.67 4.01 5.19 -15.66 1.72 2.23 -6.71 -8.25 2.98 7.04 7.66 -2.59 7.53 2.43 -1.42 -0.12 -87.09 -22.08 10.76 -118.34 3.11 39.00 14.79 15.84 4.07 5.05 -10.50 -0.03 56.48 -44.32 26.12 88.14 -1.59 16.58 -30.09 14.19 -8.20 -19.95 4.18 -1.24 37.10 -0.89 -2.56 7.29 -4.58 -11.37 -79.48 -5.45 -1.24 105.31 -3.71 3.21 -0.00 -0.00 0.00 
-214.813873 49.710278 3780.414795 26.90 -4.19 1.64 3.51 7.19 -15.40 1.50 3.08 -6.59 -7.79 4.49 7.83 8.03 -6.19 8.60 3.33 -0.25 -0.16 -86.40 -21.36 10.75 -121.72 3.33 41.62 16.41 18.60 5.35 6.44 -12.72 -0.00 52.96 -53.55 29.07 90.26 -1.74 19.35 -31.13 14.57 -8.81 -12.33 8.26 3.32 33.37 -1.03 -2.51 20.86 -5.51 -10.20 -79.77 -1.58 0.71 84.31 -2.59 3.91 -0.00 -0.00 0.00 
-214.500061 50.651028 3790.412842 27.30 -3.58 1.61 3.16 8.49 -15.32 1.35 3.64 -6.56 -7.55 4.17 8.53 7.97 -8.64 9.28 3.51 -0.81 -0.13 -84.74 -17.22 9.55 -121.48 3.24 41.78 16.98 15.92 4.80 7.85 -13.31 -0.07 56.54 -61.45 22.55 92.03 -2.56 28.45 -37.73 19.21 -14.44 -9.39 7.55 4.29 43.87 -0.41 -3.01 26.39 -4.29 -10.18 -73.73 -2.24 1.32 57.21 -0.82 3.37 -0.00 -0.00 0.00 
-214.280960 50.406773 3797.681396 26.43 -1.98 1.60 4.29 9.19 -14.56 1.83 3.94 -6.24 -8.31 3.85 8.34 7.77 -10.93 9.08 3.68 -1.47 -0.08 -84.41 -13.42 9.19 -117.95 3.54 45.62 13.17 13.09 3.07 6.92 -12.30 -0.16 66.52 -58.69 9.43 92.68 -2.78 31.32 -36.33 20.77 -14.75 -11.16 5.04 2.97 65.02 0.43 -3.51 30.32 -6.22 -8.89 -65.86 -4.10 0.64 37.56 0.40 2.53 -0.00 -0.00 0.00 
-213.748047 49.295784 3815.187744 24.78 -1.67 1.59 3.84 9.65 -11.33 1.64 4.13 -4.85 -5.37 2.53 6.92 7.35 -12.42 7.69 2.08 -1.29 -0.12 -85.17 -6.23 11.55 -111.80 3.61 45.67 13.88 15.64 3.73 5.48 -8.25 -0.04 67.89 -50.25 5.32 93.74 -2.55 30.48 -31.89 15.52 -9.60 -13.67 3.24 4.49 87.68 1.82 -3.97 31.54 -2.73 -10.92 -59.26 -4.49 -2.85 33.73 1.01 2.10 -0.00 -0.00 0.00 
-213.848709 47.428345 3812.854736 24.01 -3.97 1.57 3.01 11.97 -5.67 1.29 5.13 -2.42 -3.93 0.30 5.62 6.97 -14.05 6.11 2.07 -2.54 -0.08 -86.03 1.39 13.74 -102.65 3.34 41.12 12.57 17.39 3.78 4.17 -3.95 -0.09 65.47 -34.80 4.97 94.47 -2.44 28.10 -27.78 11.08 -5.98 -21.61 5.55 7.70 109.76 3.04 -3.74 33.58 -3.53 -9.95 -52.75 -2.38 -8.79 39.92 0.49 2.35 -0.00 -0.00 0.00 
-213.653305 45.794060 3819.797363 23.95 -7.38 1.54 3.52 14.01 0.44 1.51 6.01 0.19 -6.45 -0.63 4.83 6.94 -15.68 5.38 1.79 -3.22 -0.08 -86.22 8.86 12.72 -95.60 3.17 38.90 14.31 18.34 4.61 4.15 -1.05 -0.11 65.47 -15.12 6.32 95.88 -2.39 27.71 -27.14 12.03 -6.24 -36.59 9.56 7.15 125.97 4.06 -3.17 38.09 -8.96 -5.74 -48.09 2.22 -9.36 48.02 0.20 2.99 -0.00 -0.00 0.00 
-213.481583 45.495773 3826.621826 24.34 -7.94 1.49 4.24 12.32 5.77 1.81 5.28 2.47 -7.33 0.14 4.07 5.51 -15.86 5.01 0.58 -1.02 -0.16 -85.32 18.63 10.38 -92.58 2.97 37.04 15.14 22.34 5.91 6.21 -1.52 -0.02 71.39 4.34 8.06 98.39 -2.78 31.85 -30.32 14.71 -8.50 -57.06 9.72 4.19 131.37 4.56 -3.19 40.11 -9.08 -5.31 -40.51 4.51 -4.53 50.16 0.11 3.10 -0.00 -0.00 0.00 
